<svg xmlns="http://www.w3.org/2000/svg" xmlns:xlink="http://www.w3.org/1999/xlink" width="235" zoomAndPan="magnify" viewBox="0 0 176.25 67.499998" height="90" preserveAspectRatio="xMidYMid meet" version="1.0"><defs><g/><clipPath id="d1cf0037e0"><path d="M 0.277344 1.164062 L 175.230469 1.164062 L 175.230469 65.933594 L 0.277344 65.933594 Z M 0.277344 1.164062 " clip-rule="nonzero"/></clipPath></defs><g clip-path="url(#d1cf0037e0)"><path fill="#ffffff" d="M -31.691406 1.164062 L 205.054688 1.164062 L 205.054688 65.933594 L -31.691406 65.933594 Z M -31.691406 1.164062 " fill-opacity="1" fill-rule="nonzero"/></g><g fill="#88ff55" fill-opacity="0.302"><g transform="translate(2.938777, 49.764612)"><g><path d="M 13.46875 0.484375 C 11.320312 0.484375 9.441406 0.0390625 7.828125 -0.84375 C 6.222656 -1.726562 4.890625 -2.921875 3.828125 -4.421875 C 2.773438 -5.921875 1.976562 -7.59375 1.4375 -9.4375 C 0.90625 -11.289062 0.640625 -13.195312 0.640625 -15.15625 C 0.640625 -17.101562 0.90625 -19.007812 1.4375 -20.875 C 1.976562 -22.738281 2.773438 -24.410156 3.828125 -25.890625 C 4.890625 -27.378906 6.222656 -28.566406 7.828125 -29.453125 C 9.441406 -30.335938 11.320312 -30.78125 13.46875 -30.78125 C 15.601562 -30.78125 17.472656 -30.335938 19.078125 -29.453125 C 20.691406 -28.566406 22.035156 -27.378906 23.109375 -25.890625 C 24.179688 -24.410156 24.984375 -22.738281 25.515625 -20.875 C 26.054688 -19.007812 26.328125 -17.101562 26.328125 -15.15625 C 26.328125 -13.195312 26.054688 -11.289062 25.515625 -9.4375 C 24.984375 -7.59375 24.179688 -5.921875 23.109375 -4.421875 C 22.035156 -2.921875 20.691406 -1.726562 19.078125 -0.84375 C 17.472656 0.0390625 15.601562 0.484375 13.46875 0.484375 Z M 20.984375 -23.1875 C 20.117188 -23.1875 19.078125 -22.972656 17.859375 -22.546875 C 16.640625 -22.117188 15.359375 -21.535156 14.015625 -20.796875 C 12.679688 -20.054688 11.367188 -19.21875 10.078125 -18.28125 C 8.796875 -17.34375 7.632812 -16.359375 6.59375 -15.328125 C 5.550781 -14.296875 4.710938 -13.269531 4.078125 -12.25 C 3.453125 -11.238281 3.140625 -10.289062 3.140625 -9.40625 C 3.140625 -8.570312 3.421875 -7.976562 3.984375 -7.625 C 4.546875 -7.28125 5.203125 -7.109375 5.953125 -7.109375 C 6.835938 -7.109375 7.878906 -7.320312 9.078125 -7.75 C 10.285156 -8.1875 11.554688 -8.769531 12.890625 -9.5 C 14.234375 -10.238281 15.546875 -11.078125 16.828125 -12.015625 C 18.117188 -12.953125 19.289062 -13.9375 20.34375 -14.96875 C 21.40625 -16 22.25 -17.03125 22.875 -18.0625 C 23.507812 -19.09375 23.828125 -20.050781 23.828125 -20.9375 C 23.828125 -21.769531 23.539062 -22.351562 22.96875 -22.6875 C 22.394531 -23.019531 21.734375 -23.1875 20.984375 -23.1875 Z M 20.984375 -23.1875 "/></g></g></g><g fill="#88ff55" fill-opacity="0.302"><g transform="translate(29.860782, 49.764612)"><g/></g></g><g fill="#88ff55" fill-opacity="0.302"><g transform="translate(40.308126, 49.764612)"><g><path d="M 0.796875 0 C 1.492188 -3 2.101562 -5.90625 2.625 -8.71875 C 3.15625 -11.53125 3.421875 -14.359375 3.421875 -17.203125 C 3.421875 -19.316406 3.21875 -21.457031 2.8125 -23.625 C 2.40625 -25.800781 1.734375 -28.023438 0.796875 -30.296875 L 9.890625 -30.296875 C 10.335938 -29.523438 10.648438 -28.734375 10.828125 -27.921875 C 11.003906 -27.117188 11.09375 -26.316406 11.09375 -25.515625 C 11.09375 -24.117188 10.867188 -22.734375 10.421875 -21.359375 C 9.984375 -19.984375 9.441406 -18.65625 8.796875 -17.375 C 8.160156 -16.101562 7.519531 -14.910156 6.875 -13.796875 C 6.226562 -12.691406 5.679688 -11.695312 5.234375 -10.8125 C 4.796875 -9.925781 4.578125 -9.203125 4.578125 -8.640625 C 4.578125 -8.128906 4.785156 -7.753906 5.203125 -7.515625 C 5.617188 -7.273438 6.09375 -7.117188 6.625 -7.046875 C 7.164062 -6.984375 7.625 -6.953125 8 -6.953125 C 8.988281 -6.953125 10.066406 -7.050781 11.234375 -7.25 C 12.398438 -7.457031 13.535156 -7.710938 14.640625 -8.015625 C 15.753906 -8.328125 16.738281 -8.632812 17.59375 -8.9375 C 18.457031 -9.25 19.0625 -9.5 19.40625 -9.6875 L 19.40625 0 Z M 0.796875 0 "/></g></g></g><g fill="#88ff55" fill-opacity="0.302"><g transform="translate(59.91699, 49.764612)"><g><path d="M 0.078125 -28.375 C 0.078125 -29.394531 0.53125 -30.210938 1.4375 -30.828125 C 2.351562 -31.441406 3.5625 -31.75 5.0625 -31.75 C 6.5625 -31.75 7.757812 -31.441406 8.65625 -30.828125 C 9.550781 -30.210938 10 -29.394531 10 -28.375 C 10 -27.351562 9.550781 -26.519531 8.65625 -25.875 C 7.757812 -25.238281 6.5625 -24.921875 5.0625 -24.921875 C 3.5625 -24.921875 2.351562 -25.238281 1.4375 -25.875 C 0.53125 -26.519531 0.078125 -27.351562 0.078125 -28.375 Z M 0.609375 0 C 1.703125 -2.28125 2.484375 -4.675781 2.953125 -7.1875 C 3.421875 -9.707031 3.488281 -12.273438 3.15625 -14.890625 C 2.820312 -17.503906 1.972656 -20.082031 0.609375 -22.625 L 9.4375 -22.625 C 8.375 -20.34375 7.609375 -17.941406 7.140625 -15.421875 C 6.671875 -12.910156 6.601562 -10.347656 6.9375 -7.734375 C 7.269531 -5.117188 8.101562 -2.539062 9.4375 0 Z M 0.609375 0 "/></g></g></g><g fill="#88ff55" fill-opacity="0.302"><g transform="translate(70.002699, 49.764612)"><g><path d="M 12.53125 -22.625 C 13.207031 -21.34375 13.535156 -20.128906 13.515625 -18.984375 C 13.503906 -17.847656 13.257812 -16.785156 12.78125 -15.796875 C 12.300781 -14.804688 11.691406 -13.890625 10.953125 -13.046875 C 10.210938 -12.203125 9.441406 -11.414062 8.640625 -10.6875 C 7.835938 -9.96875 7.097656 -9.316406 6.421875 -8.734375 C 5.753906 -8.160156 5.253906 -7.640625 4.921875 -7.171875 C 4.585938 -6.703125 4.523438 -6.28125 4.734375 -5.90625 C 4.867188 -5.695312 5.234375 -5.59375 5.828125 -5.59375 C 6.472656 -5.59375 7.273438 -5.734375 8.234375 -6.015625 C 9.203125 -6.296875 10.210938 -6.726562 11.265625 -7.3125 C 12.328125 -7.90625 13.304688 -8.660156 14.203125 -9.578125 C 15.097656 -10.503906 15.796875 -11.597656 16.296875 -12.859375 C 16.796875 -14.117188 16.984375 -15.554688 16.859375 -17.171875 C 16.734375 -18.796875 16.164062 -20.613281 15.15625 -22.625 L 20.8125 -22.625 C 20.007812 -20.457031 19.320312 -18.46875 18.75 -16.65625 C 18.175781 -14.84375 17.6875 -13.078125 17.28125 -11.359375 C 16.875 -9.648438 16.5625 -7.882812 16.34375 -6.0625 C 16.132812 -4.238281 16.003906 -2.21875 15.953125 0 L 4.265625 0 C 4.203125 -2.21875 4.0625 -4.238281 3.84375 -6.0625 C 3.632812 -7.882812 3.328125 -9.648438 2.921875 -11.359375 C 2.523438 -13.078125 2.039062 -14.84375 1.46875 -16.65625 C 0.894531 -18.46875 0.203125 -20.457031 -0.609375 -22.625 Z M 12.53125 -22.625 "/></g></g></g><g fill="#88ff55" fill-opacity="0.302"><g transform="translate(90.214293, 49.764612)"><g><path d="M 0.6875 0 C 1.488281 -2.21875 2.085938 -4.234375 2.484375 -6.046875 C 2.890625 -7.859375 3.09375 -9.613281 3.09375 -11.3125 C 3.09375 -13.007812 2.890625 -14.769531 2.484375 -16.59375 C 2.085938 -18.414062 1.488281 -20.425781 0.6875 -22.625 L 8.59375 -22.625 L 6.90625 -12.625 L 7.5625 -12.53125 C 7.6875 -13.175781 7.816406 -13.953125 7.953125 -14.859375 C 8.085938 -15.773438 8.257812 -16.707031 8.46875 -17.65625 C 8.6875 -18.613281 9.003906 -19.503906 9.421875 -20.328125 C 9.835938 -21.160156 10.394531 -21.832031 11.09375 -22.34375 C 11.789062 -22.851562 12.675781 -23.109375 13.75 -23.109375 C 14.550781 -23.109375 15.445312 -22.945312 16.4375 -22.625 L 16.4375 -15.640625 C 15.90625 -15.765625 15.410156 -15.828125 14.953125 -15.828125 C 13.796875 -15.828125 12.695312 -15.523438 11.65625 -14.921875 C 10.613281 -14.328125 9.703125 -13.503906 8.921875 -12.453125 C 8.140625 -11.410156 7.566406 -10.210938 7.203125 -8.859375 C 6.847656 -7.503906 6.769531 -6.070312 6.96875 -4.5625 C 7.175781 -3.050781 7.734375 -1.53125 8.640625 0 Z M 0.6875 0 "/></g></g></g><g fill="#88ff55" fill-opacity="0.302"><g transform="translate(106.849681, 49.764612)"><g><path d="M 2.6875 -7.109375 C 2.6875 -6.359375 3.054688 -5.835938 3.796875 -5.546875 C 4.535156 -5.253906 5.476562 -5.109375 6.625 -5.109375 C 7.75 -5.109375 8.960938 -5.210938 10.265625 -5.421875 C 11.566406 -5.640625 12.828125 -5.910156 14.046875 -6.234375 C 15.265625 -6.554688 16.316406 -6.875 17.203125 -7.1875 C 18.085938 -7.507812 18.648438 -7.765625 18.890625 -7.953125 L 18.890625 -0.125 C 17.972656 0.0625 17.046875 0.207031 16.109375 0.3125 C 15.171875 0.425781 14.234375 0.484375 13.296875 0.484375 C 11.929688 0.484375 10.507812 0.289062 9.03125 -0.09375 C 7.5625 -0.488281 6.179688 -1.132812 4.890625 -2.03125 C 3.609375 -2.925781 2.570312 -4.117188 1.78125 -5.609375 C 1 -7.097656 0.609375 -8.9375 0.609375 -11.125 C 0.609375 -12.625 0.84375 -14.082031 1.3125 -15.5 C 1.78125 -16.925781 2.484375 -18.207031 3.421875 -19.34375 C 4.359375 -20.488281 5.535156 -21.398438 6.953125 -22.078125 C 8.367188 -22.765625 10.039062 -23.109375 11.96875 -23.109375 C 12.644531 -23.109375 13.40625 -23.066406 14.25 -22.984375 C 15.09375 -22.898438 15.929688 -22.78125 16.765625 -22.625 C 17.210938 -21.925781 17.582031 -20.945312 17.875 -19.6875 C 18.175781 -18.425781 18.328125 -17.085938 18.328125 -15.671875 C 17.972656 -14.867188 17.398438 -14.066406 16.609375 -13.265625 C 15.828125 -12.460938 14.828125 -11.796875 13.609375 -11.265625 C 12.390625 -10.742188 10.960938 -10.484375 9.328125 -10.484375 L 9.328125 -11.6875 C 10.523438 -11.6875 11.632812 -11.859375 12.65625 -12.203125 C 13.675781 -12.554688 14.546875 -12.976562 15.265625 -13.46875 C 15.992188 -13.96875 16.519531 -14.46875 16.84375 -14.96875 C 17.164062 -15.46875 17.234375 -15.863281 17.046875 -16.15625 C 16.929688 -16.375 16.539062 -16.484375 15.875 -16.484375 C 15.125 -16.484375 14.144531 -16.320312 12.9375 -16 C 11.726562 -15.675781 10.601562 -15.207031 9.5625 -14.59375 C 7.226562 -13.195312 5.5 -11.816406 4.375 -10.453125 C 3.25 -9.085938 2.6875 -7.972656 2.6875 -7.109375 Z M 2.6875 -7.109375 "/></g></g></g><g fill="#88ff55" fill-opacity="0.302"><g transform="translate(126.337993, 49.764612)"><g><path d="M 0.078125 -28.375 C 0.078125 -29.394531 0.53125 -30.210938 1.4375 -30.828125 C 2.351562 -31.441406 3.5625 -31.75 5.0625 -31.75 C 6.5625 -31.75 7.757812 -31.441406 8.65625 -30.828125 C 9.550781 -30.210938 10 -29.394531 10 -28.375 C 10 -27.351562 9.550781 -26.519531 8.65625 -25.875 C 7.757812 -25.238281 6.5625 -24.921875 5.0625 -24.921875 C 3.5625 -24.921875 2.351562 -25.238281 1.4375 -25.875 C 0.53125 -26.519531 0.078125 -27.351562 0.078125 -28.375 Z M 0.609375 0 C 1.703125 -2.28125 2.484375 -4.675781 2.953125 -7.1875 C 3.421875 -9.707031 3.488281 -12.273438 3.15625 -14.890625 C 2.820312 -17.503906 1.972656 -20.082031 0.609375 -22.625 L 9.4375 -22.625 C 8.375 -20.34375 7.609375 -17.941406 7.140625 -15.421875 C 6.671875 -12.910156 6.601562 -10.347656 6.9375 -7.734375 C 7.269531 -5.117188 8.101562 -2.539062 9.4375 0 Z M 0.609375 0 "/></g></g></g><g fill="#88ff55" fill-opacity="0.302"><g transform="translate(136.423702, 49.764612)"><g><path d="M 0.6875 0 C 1.488281 -2.21875 2.085938 -4.234375 2.484375 -6.046875 C 2.890625 -7.859375 3.09375 -9.613281 3.09375 -11.3125 C 3.09375 -13.007812 2.890625 -14.769531 2.484375 -16.59375 C 2.085938 -18.414062 1.488281 -20.425781 0.6875 -22.625 L 8.59375 -22.625 L 6.90625 -12.625 L 7.5625 -12.53125 C 7.6875 -13.175781 7.816406 -13.953125 7.953125 -14.859375 C 8.085938 -15.773438 8.257812 -16.707031 8.46875 -17.65625 C 8.6875 -18.613281 9.003906 -19.503906 9.421875 -20.328125 C 9.835938 -21.160156 10.394531 -21.832031 11.09375 -22.34375 C 11.789062 -22.851562 12.675781 -23.109375 13.75 -23.109375 C 14.550781 -23.109375 15.445312 -22.945312 16.4375 -22.625 L 16.4375 -15.640625 C 15.90625 -15.765625 15.410156 -15.828125 14.953125 -15.828125 C 13.796875 -15.828125 12.695312 -15.523438 11.65625 -14.921875 C 10.613281 -14.328125 9.703125 -13.503906 8.921875 -12.453125 C 8.140625 -11.410156 7.566406 -10.210938 7.203125 -8.859375 C 6.847656 -7.503906 6.769531 -6.070312 6.96875 -4.5625 C 7.175781 -3.050781 7.734375 -1.53125 8.640625 0 Z M 0.6875 0 "/></g></g></g><g fill="#88ff55" fill-opacity="0.302"><g transform="translate(153.059085, 49.764612)"><g><path d="M 10.65625 0.484375 C 8.90625 0.484375 7.398438 0.148438 6.140625 -0.515625 C 4.890625 -1.191406 3.851562 -2.09375 3.03125 -3.21875 C 2.21875 -4.34375 1.609375 -5.597656 1.203125 -6.984375 C 0.804688 -8.378906 0.609375 -9.816406 0.609375 -11.296875 C 0.609375 -12.765625 0.800781 -14.203125 1.1875 -15.609375 C 1.570312 -17.015625 2.171875 -18.28125 2.984375 -19.40625 C 3.804688 -20.53125 4.851562 -21.425781 6.125 -22.09375 C 7.394531 -22.769531 8.90625 -23.109375 10.65625 -23.109375 C 12.394531 -23.109375 13.894531 -22.769531 15.15625 -22.09375 C 16.414062 -21.425781 17.453125 -20.53125 18.265625 -19.40625 C 19.078125 -18.28125 19.675781 -17.015625 20.0625 -15.609375 C 20.457031 -14.203125 20.65625 -12.765625 20.65625 -11.296875 C 20.65625 -9.816406 20.457031 -8.378906 20.0625 -6.984375 C 19.675781 -5.597656 19.078125 -4.34375 18.265625 -3.21875 C 17.453125 -2.09375 16.414062 -1.191406 15.15625 -0.515625 C 13.894531 0.148438 12.394531 0.484375 10.65625 0.484375 Z M 8.234375 -13.703125 C 5.878906 -12.097656 4.300781 -10.640625 3.5 -9.328125 C 2.695312 -8.015625 2.507812 -7.019531 2.9375 -6.34375 C 3.257812 -5.8125 3.925781 -5.546875 4.9375 -5.546875 C 5.851562 -5.546875 7 -5.804688 8.375 -6.328125 C 9.757812 -6.847656 11.304688 -7.695312 13.015625 -8.875 C 15.378906 -10.507812 16.960938 -11.976562 17.765625 -13.28125 C 18.566406 -14.582031 18.753906 -15.566406 18.328125 -16.234375 C 18.003906 -16.773438 17.332031 -17.046875 16.3125 -17.046875 C 15.40625 -17.046875 14.265625 -16.78125 12.890625 -16.25 C 11.523438 -15.726562 9.972656 -14.878906 8.234375 -13.703125 Z M 8.234375 -13.703125 "/></g></g></g><g fill="#88ff55" fill-opacity="0.502"><g transform="translate(2.035937, 48.374359)"><g><path d="M 13.46875 0.484375 C 11.320312 0.484375 9.441406 0.0390625 7.828125 -0.84375 C 6.222656 -1.726562 4.890625 -2.921875 3.828125 -4.421875 C 2.773438 -5.921875 1.976562 -7.59375 1.4375 -9.4375 C 0.90625 -11.289062 0.640625 -13.195312 0.640625 -15.15625 C 0.640625 -17.101562 0.90625 -19.007812 1.4375 -20.875 C 1.976562 -22.738281 2.773438 -24.410156 3.828125 -25.890625 C 4.890625 -27.378906 6.222656 -28.566406 7.828125 -29.453125 C 9.441406 -30.335938 11.320312 -30.78125 13.46875 -30.78125 C 15.601562 -30.78125 17.472656 -30.335938 19.078125 -29.453125 C 20.691406 -28.566406 22.035156 -27.378906 23.109375 -25.890625 C 24.179688 -24.410156 24.984375 -22.738281 25.515625 -20.875 C 26.054688 -19.007812 26.328125 -17.101562 26.328125 -15.15625 C 26.328125 -13.195312 26.054688 -11.289062 25.515625 -9.4375 C 24.984375 -7.59375 24.179688 -5.921875 23.109375 -4.421875 C 22.035156 -2.921875 20.691406 -1.726562 19.078125 -0.84375 C 17.472656 0.0390625 15.601562 0.484375 13.46875 0.484375 Z M 20.984375 -23.1875 C 20.117188 -23.1875 19.078125 -22.972656 17.859375 -22.546875 C 16.640625 -22.117188 15.359375 -21.535156 14.015625 -20.796875 C 12.679688 -20.054688 11.367188 -19.21875 10.078125 -18.28125 C 8.796875 -17.34375 7.632812 -16.359375 6.59375 -15.328125 C 5.550781 -14.296875 4.710938 -13.269531 4.078125 -12.25 C 3.453125 -11.238281 3.140625 -10.289062 3.140625 -9.40625 C 3.140625 -8.570312 3.421875 -7.976562 3.984375 -7.625 C 4.546875 -7.28125 5.203125 -7.109375 5.953125 -7.109375 C 6.835938 -7.109375 7.878906 -7.320312 9.078125 -7.75 C 10.285156 -8.1875 11.554688 -8.769531 12.890625 -9.5 C 14.234375 -10.238281 15.546875 -11.078125 16.828125 -12.015625 C 18.117188 -12.953125 19.289062 -13.9375 20.34375 -14.96875 C 21.40625 -16 22.25 -17.03125 22.875 -18.0625 C 23.507812 -19.09375 23.828125 -20.050781 23.828125 -20.9375 C 23.828125 -21.769531 23.539062 -22.351562 22.96875 -22.6875 C 22.394531 -23.019531 21.734375 -23.1875 20.984375 -23.1875 Z M 20.984375 -23.1875 "/></g></g></g><g fill="#88ff55" fill-opacity="0.502"><g transform="translate(28.957943, 48.374359)"><g/></g></g><g fill="#88ff55" fill-opacity="0.502"><g transform="translate(39.405287, 48.374359)"><g><path d="M 0.796875 0 C 1.492188 -3 2.101562 -5.90625 2.625 -8.71875 C 3.15625 -11.53125 3.421875 -14.359375 3.421875 -17.203125 C 3.421875 -19.316406 3.21875 -21.457031 2.8125 -23.625 C 2.40625 -25.800781 1.734375 -28.023438 0.796875 -30.296875 L 9.890625 -30.296875 C 10.335938 -29.523438 10.648438 -28.734375 10.828125 -27.921875 C 11.003906 -27.117188 11.09375 -26.316406 11.09375 -25.515625 C 11.09375 -24.117188 10.867188 -22.734375 10.421875 -21.359375 C 9.984375 -19.984375 9.441406 -18.65625 8.796875 -17.375 C 8.160156 -16.101562 7.519531 -14.910156 6.875 -13.796875 C 6.226562 -12.691406 5.679688 -11.695312 5.234375 -10.8125 C 4.796875 -9.925781 4.578125 -9.203125 4.578125 -8.640625 C 4.578125 -8.128906 4.785156 -7.753906 5.203125 -7.515625 C 5.617188 -7.273438 6.09375 -7.117188 6.625 -7.046875 C 7.164062 -6.984375 7.625 -6.953125 8 -6.953125 C 8.988281 -6.953125 10.066406 -7.050781 11.234375 -7.25 C 12.398438 -7.457031 13.535156 -7.710938 14.640625 -8.015625 C 15.753906 -8.328125 16.738281 -8.632812 17.59375 -8.9375 C 18.457031 -9.25 19.0625 -9.5 19.40625 -9.6875 L 19.40625 0 Z M 0.796875 0 "/></g></g></g><g fill="#88ff55" fill-opacity="0.502"><g transform="translate(59.014151, 48.374359)"><g><path d="M 0.078125 -28.375 C 0.078125 -29.394531 0.53125 -30.210938 1.4375 -30.828125 C 2.351562 -31.441406 3.5625 -31.75 5.0625 -31.75 C 6.5625 -31.75 7.757812 -31.441406 8.65625 -30.828125 C 9.550781 -30.210938 10 -29.394531 10 -28.375 C 10 -27.351562 9.550781 -26.519531 8.65625 -25.875 C 7.757812 -25.238281 6.5625 -24.921875 5.0625 -24.921875 C 3.5625 -24.921875 2.351562 -25.238281 1.4375 -25.875 C 0.53125 -26.519531 0.078125 -27.351562 0.078125 -28.375 Z M 0.609375 0 C 1.703125 -2.28125 2.484375 -4.675781 2.953125 -7.1875 C 3.421875 -9.707031 3.488281 -12.273438 3.15625 -14.890625 C 2.820312 -17.503906 1.972656 -20.082031 0.609375 -22.625 L 9.4375 -22.625 C 8.375 -20.34375 7.609375 -17.941406 7.140625 -15.421875 C 6.671875 -12.910156 6.601562 -10.347656 6.9375 -7.734375 C 7.269531 -5.117188 8.101562 -2.539062 9.4375 0 Z M 0.609375 0 "/></g></g></g><g fill="#88ff55" fill-opacity="0.502"><g transform="translate(69.09986, 48.374359)"><g><path d="M 12.53125 -22.625 C 13.207031 -21.34375 13.535156 -20.128906 13.515625 -18.984375 C 13.503906 -17.847656 13.257812 -16.785156 12.78125 -15.796875 C 12.300781 -14.804688 11.691406 -13.890625 10.953125 -13.046875 C 10.210938 -12.203125 9.441406 -11.414062 8.640625 -10.6875 C 7.835938 -9.96875 7.097656 -9.316406 6.421875 -8.734375 C 5.753906 -8.160156 5.253906 -7.640625 4.921875 -7.171875 C 4.585938 -6.703125 4.523438 -6.28125 4.734375 -5.90625 C 4.867188 -5.695312 5.234375 -5.59375 5.828125 -5.59375 C 6.472656 -5.59375 7.273438 -5.734375 8.234375 -6.015625 C 9.203125 -6.296875 10.210938 -6.726562 11.265625 -7.3125 C 12.328125 -7.90625 13.304688 -8.660156 14.203125 -9.578125 C 15.097656 -10.503906 15.796875 -11.597656 16.296875 -12.859375 C 16.796875 -14.117188 16.984375 -15.554688 16.859375 -17.171875 C 16.734375 -18.796875 16.164062 -20.613281 15.15625 -22.625 L 20.8125 -22.625 C 20.007812 -20.457031 19.320312 -18.46875 18.75 -16.65625 C 18.175781 -14.84375 17.6875 -13.078125 17.28125 -11.359375 C 16.875 -9.648438 16.5625 -7.882812 16.34375 -6.0625 C 16.132812 -4.238281 16.003906 -2.21875 15.953125 0 L 4.265625 0 C 4.203125 -2.21875 4.0625 -4.238281 3.84375 -6.0625 C 3.632812 -7.882812 3.328125 -9.648438 2.921875 -11.359375 C 2.523438 -13.078125 2.039062 -14.84375 1.46875 -16.65625 C 0.894531 -18.46875 0.203125 -20.457031 -0.609375 -22.625 Z M 12.53125 -22.625 "/></g></g></g><g fill="#88ff55" fill-opacity="0.502"><g transform="translate(89.311453, 48.374359)"><g><path d="M 0.6875 0 C 1.488281 -2.21875 2.085938 -4.234375 2.484375 -6.046875 C 2.890625 -7.859375 3.09375 -9.613281 3.09375 -11.3125 C 3.09375 -13.007812 2.890625 -14.769531 2.484375 -16.59375 C 2.085938 -18.414062 1.488281 -20.425781 0.6875 -22.625 L 8.59375 -22.625 L 6.90625 -12.625 L 7.5625 -12.53125 C 7.6875 -13.175781 7.816406 -13.953125 7.953125 -14.859375 C 8.085938 -15.773438 8.257812 -16.707031 8.46875 -17.65625 C 8.6875 -18.613281 9.003906 -19.503906 9.421875 -20.328125 C 9.835938 -21.160156 10.394531 -21.832031 11.09375 -22.34375 C 11.789062 -22.851562 12.675781 -23.109375 13.75 -23.109375 C 14.550781 -23.109375 15.445312 -22.945312 16.4375 -22.625 L 16.4375 -15.640625 C 15.90625 -15.765625 15.410156 -15.828125 14.953125 -15.828125 C 13.796875 -15.828125 12.695312 -15.523438 11.65625 -14.921875 C 10.613281 -14.328125 9.703125 -13.503906 8.921875 -12.453125 C 8.140625 -11.410156 7.566406 -10.210938 7.203125 -8.859375 C 6.847656 -7.503906 6.769531 -6.070312 6.96875 -4.5625 C 7.175781 -3.050781 7.734375 -1.53125 8.640625 0 Z M 0.6875 0 "/></g></g></g><g fill="#88ff55" fill-opacity="0.502"><g transform="translate(105.946842, 48.374359)"><g><path d="M 2.6875 -7.109375 C 2.6875 -6.359375 3.054688 -5.835938 3.796875 -5.546875 C 4.535156 -5.253906 5.476562 -5.109375 6.625 -5.109375 C 7.75 -5.109375 8.960938 -5.210938 10.265625 -5.421875 C 11.566406 -5.640625 12.828125 -5.910156 14.046875 -6.234375 C 15.265625 -6.554688 16.316406 -6.875 17.203125 -7.1875 C 18.085938 -7.507812 18.648438 -7.765625 18.890625 -7.953125 L 18.890625 -0.125 C 17.972656 0.0625 17.046875 0.207031 16.109375 0.3125 C 15.171875 0.425781 14.234375 0.484375 13.296875 0.484375 C 11.929688 0.484375 10.507812 0.289062 9.03125 -0.09375 C 7.5625 -0.488281 6.179688 -1.132812 4.890625 -2.03125 C 3.609375 -2.925781 2.570312 -4.117188 1.78125 -5.609375 C 1 -7.097656 0.609375 -8.9375 0.609375 -11.125 C 0.609375 -12.625 0.84375 -14.082031 1.3125 -15.5 C 1.78125 -16.925781 2.484375 -18.207031 3.421875 -19.34375 C 4.359375 -20.488281 5.535156 -21.398438 6.953125 -22.078125 C 8.367188 -22.765625 10.039062 -23.109375 11.96875 -23.109375 C 12.644531 -23.109375 13.40625 -23.066406 14.25 -22.984375 C 15.09375 -22.898438 15.929688 -22.78125 16.765625 -22.625 C 17.210938 -21.925781 17.582031 -20.945312 17.875 -19.6875 C 18.175781 -18.425781 18.328125 -17.085938 18.328125 -15.671875 C 17.972656 -14.867188 17.398438 -14.066406 16.609375 -13.265625 C 15.828125 -12.460938 14.828125 -11.796875 13.609375 -11.265625 C 12.390625 -10.742188 10.960938 -10.484375 9.328125 -10.484375 L 9.328125 -11.6875 C 10.523438 -11.6875 11.632812 -11.859375 12.65625 -12.203125 C 13.675781 -12.554688 14.546875 -12.976562 15.265625 -13.46875 C 15.992188 -13.96875 16.519531 -14.46875 16.84375 -14.96875 C 17.164062 -15.46875 17.234375 -15.863281 17.046875 -16.15625 C 16.929688 -16.375 16.539062 -16.484375 15.875 -16.484375 C 15.125 -16.484375 14.144531 -16.320312 12.9375 -16 C 11.726562 -15.675781 10.601562 -15.207031 9.5625 -14.59375 C 7.226562 -13.195312 5.5 -11.816406 4.375 -10.453125 C 3.25 -9.085938 2.6875 -7.972656 2.6875 -7.109375 Z M 2.6875 -7.109375 "/></g></g></g><g fill="#88ff55" fill-opacity="0.502"><g transform="translate(125.435154, 48.374359)"><g><path d="M 0.078125 -28.375 C 0.078125 -29.394531 0.53125 -30.210938 1.4375 -30.828125 C 2.351562 -31.441406 3.5625 -31.75 5.0625 -31.75 C 6.5625 -31.75 7.757812 -31.441406 8.65625 -30.828125 C 9.550781 -30.210938 10 -29.394531 10 -28.375 C 10 -27.351562 9.550781 -26.519531 8.65625 -25.875 C 7.757812 -25.238281 6.5625 -24.921875 5.0625 -24.921875 C 3.5625 -24.921875 2.351562 -25.238281 1.4375 -25.875 C 0.53125 -26.519531 0.078125 -27.351562 0.078125 -28.375 Z M 0.609375 0 C 1.703125 -2.28125 2.484375 -4.675781 2.953125 -7.1875 C 3.421875 -9.707031 3.488281 -12.273438 3.15625 -14.890625 C 2.820312 -17.503906 1.972656 -20.082031 0.609375 -22.625 L 9.4375 -22.625 C 8.375 -20.34375 7.609375 -17.941406 7.140625 -15.421875 C 6.671875 -12.910156 6.601562 -10.347656 6.9375 -7.734375 C 7.269531 -5.117188 8.101562 -2.539062 9.4375 0 Z M 0.609375 0 "/></g></g></g><g fill="#88ff55" fill-opacity="0.502"><g transform="translate(135.520863, 48.374359)"><g><path d="M 0.6875 0 C 1.488281 -2.21875 2.085938 -4.234375 2.484375 -6.046875 C 2.890625 -7.859375 3.09375 -9.613281 3.09375 -11.3125 C 3.09375 -13.007812 2.890625 -14.769531 2.484375 -16.59375 C 2.085938 -18.414062 1.488281 -20.425781 0.6875 -22.625 L 8.59375 -22.625 L 6.90625 -12.625 L 7.5625 -12.53125 C 7.6875 -13.175781 7.816406 -13.953125 7.953125 -14.859375 C 8.085938 -15.773438 8.257812 -16.707031 8.46875 -17.65625 C 8.6875 -18.613281 9.003906 -19.503906 9.421875 -20.328125 C 9.835938 -21.160156 10.394531 -21.832031 11.09375 -22.34375 C 11.789062 -22.851562 12.675781 -23.109375 13.75 -23.109375 C 14.550781 -23.109375 15.445312 -22.945312 16.4375 -22.625 L 16.4375 -15.640625 C 15.90625 -15.765625 15.410156 -15.828125 14.953125 -15.828125 C 13.796875 -15.828125 12.695312 -15.523438 11.65625 -14.921875 C 10.613281 -14.328125 9.703125 -13.503906 8.921875 -12.453125 C 8.140625 -11.410156 7.566406 -10.210938 7.203125 -8.859375 C 6.847656 -7.503906 6.769531 -6.070312 6.96875 -4.5625 C 7.175781 -3.050781 7.734375 -1.53125 8.640625 0 Z M 0.6875 0 "/></g></g></g><g fill="#88ff55" fill-opacity="0.502"><g transform="translate(152.156246, 48.374359)"><g><path d="M 10.65625 0.484375 C 8.90625 0.484375 7.398438 0.148438 6.140625 -0.515625 C 4.890625 -1.191406 3.851562 -2.09375 3.03125 -3.21875 C 2.21875 -4.34375 1.609375 -5.597656 1.203125 -6.984375 C 0.804688 -8.378906 0.609375 -9.816406 0.609375 -11.296875 C 0.609375 -12.765625 0.800781 -14.203125 1.1875 -15.609375 C 1.570312 -17.015625 2.171875 -18.28125 2.984375 -19.40625 C 3.804688 -20.53125 4.851562 -21.425781 6.125 -22.09375 C 7.394531 -22.769531 8.90625 -23.109375 10.65625 -23.109375 C 12.394531 -23.109375 13.894531 -22.769531 15.15625 -22.09375 C 16.414062 -21.425781 17.453125 -20.53125 18.265625 -19.40625 C 19.078125 -18.28125 19.675781 -17.015625 20.0625 -15.609375 C 20.457031 -14.203125 20.65625 -12.765625 20.65625 -11.296875 C 20.65625 -9.816406 20.457031 -8.378906 20.0625 -6.984375 C 19.675781 -5.597656 19.078125 -4.34375 18.265625 -3.21875 C 17.453125 -2.09375 16.414062 -1.191406 15.15625 -0.515625 C 13.894531 0.148438 12.394531 0.484375 10.65625 0.484375 Z M 8.234375 -13.703125 C 5.878906 -12.097656 4.300781 -10.640625 3.5 -9.328125 C 2.695312 -8.015625 2.507812 -7.019531 2.9375 -6.34375 C 3.257812 -5.8125 3.925781 -5.546875 4.9375 -5.546875 C 5.851562 -5.546875 7 -5.804688 8.375 -6.328125 C 9.757812 -6.847656 11.304688 -7.695312 13.015625 -8.875 C 15.378906 -10.507812 16.960938 -11.976562 17.765625 -13.28125 C 18.566406 -14.582031 18.753906 -15.566406 18.328125 -16.234375 C 18.003906 -16.773438 17.332031 -17.046875 16.3125 -17.046875 C 15.40625 -17.046875 14.265625 -16.78125 12.890625 -16.25 C 11.523438 -15.726562 9.972656 -14.878906 8.234375 -13.703125 Z M 8.234375 -13.703125 "/></g></g></g><g fill="#f18715" fill-opacity="1"><g transform="translate(1.133096, 46.984108)"><g><path d="M 13.46875 0.484375 C 11.320312 0.484375 9.441406 0.0390625 7.828125 -0.84375 C 6.222656 -1.726562 4.890625 -2.921875 3.828125 -4.421875 C 2.773438 -5.921875 1.976562 -7.59375 1.4375 -9.4375 C 0.90625 -11.289062 0.640625 -13.195312 0.640625 -15.15625 C 0.640625 -17.101562 0.90625 -19.007812 1.4375 -20.875 C 1.976562 -22.738281 2.773438 -24.410156 3.828125 -25.890625 C 4.890625 -27.378906 6.222656 -28.566406 7.828125 -29.453125 C 9.441406 -30.335938 11.320312 -30.78125 13.46875 -30.78125 C 15.601562 -30.78125 17.472656 -30.335938 19.078125 -29.453125 C 20.691406 -28.566406 22.035156 -27.378906 23.109375 -25.890625 C 24.179688 -24.410156 24.984375 -22.738281 25.515625 -20.875 C 26.054688 -19.007812 26.328125 -17.101562 26.328125 -15.15625 C 26.328125 -13.195312 26.054688 -11.289062 25.515625 -9.4375 C 24.984375 -7.59375 24.179688 -5.921875 23.109375 -4.421875 C 22.035156 -2.921875 20.691406 -1.726562 19.078125 -0.84375 C 17.472656 0.0390625 15.601562 0.484375 13.46875 0.484375 Z M 20.984375 -23.1875 C 20.117188 -23.1875 19.078125 -22.972656 17.859375 -22.546875 C 16.640625 -22.117188 15.359375 -21.535156 14.015625 -20.796875 C 12.679688 -20.054688 11.367188 -19.21875 10.078125 -18.28125 C 8.796875 -17.34375 7.632812 -16.359375 6.59375 -15.328125 C 5.550781 -14.296875 4.710938 -13.269531 4.078125 -12.25 C 3.453125 -11.238281 3.140625 -10.289062 3.140625 -9.40625 C 3.140625 -8.570312 3.421875 -7.976562 3.984375 -7.625 C 4.546875 -7.28125 5.203125 -7.109375 5.953125 -7.109375 C 6.835938 -7.109375 7.878906 -7.320312 9.078125 -7.75 C 10.285156 -8.1875 11.554688 -8.769531 12.890625 -9.5 C 14.234375 -10.238281 15.546875 -11.078125 16.828125 -12.015625 C 18.117188 -12.953125 19.289062 -13.9375 20.34375 -14.96875 C 21.40625 -16 22.25 -17.03125 22.875 -18.0625 C 23.507812 -19.09375 23.828125 -20.050781 23.828125 -20.9375 C 23.828125 -21.769531 23.539062 -22.351562 22.96875 -22.6875 C 22.394531 -23.019531 21.734375 -23.1875 20.984375 -23.1875 Z M 20.984375 -23.1875 "/></g></g></g><g fill="#f18715" fill-opacity="1"><g transform="translate(28.055102, 46.984108)"><g/></g></g><g fill="#f18715" fill-opacity="1"><g transform="translate(38.502446, 46.984108)"><g><path d="M 0.796875 0 C 1.492188 -3 2.101562 -5.90625 2.625 -8.71875 C 3.15625 -11.53125 3.421875 -14.359375 3.421875 -17.203125 C 3.421875 -19.316406 3.21875 -21.457031 2.8125 -23.625 C 2.40625 -25.800781 1.734375 -28.023438 0.796875 -30.296875 L 9.890625 -30.296875 C 10.335938 -29.523438 10.648438 -28.734375 10.828125 -27.921875 C 11.003906 -27.117188 11.09375 -26.316406 11.09375 -25.515625 C 11.09375 -24.117188 10.867188 -22.734375 10.421875 -21.359375 C 9.984375 -19.984375 9.441406 -18.65625 8.796875 -17.375 C 8.160156 -16.101562 7.519531 -14.910156 6.875 -13.796875 C 6.226562 -12.691406 5.679688 -11.695312 5.234375 -10.8125 C 4.796875 -9.925781 4.578125 -9.203125 4.578125 -8.640625 C 4.578125 -8.128906 4.785156 -7.753906 5.203125 -7.515625 C 5.617188 -7.273438 6.09375 -7.117188 6.625 -7.046875 C 7.164062 -6.984375 7.625 -6.953125 8 -6.953125 C 8.988281 -6.953125 10.066406 -7.050781 11.234375 -7.25 C 12.398438 -7.457031 13.535156 -7.710938 14.640625 -8.015625 C 15.753906 -8.328125 16.738281 -8.632812 17.59375 -8.9375 C 18.457031 -9.25 19.0625 -9.5 19.40625 -9.6875 L 19.40625 0 Z M 0.796875 0 "/></g></g></g><g fill="#f18715" fill-opacity="1"><g transform="translate(58.11131, 46.984108)"><g><path d="M 0.078125 -28.375 C 0.078125 -29.394531 0.53125 -30.210938 1.4375 -30.828125 C 2.351562 -31.441406 3.5625 -31.75 5.0625 -31.75 C 6.5625 -31.75 7.757812 -31.441406 8.65625 -30.828125 C 9.550781 -30.210938 10 -29.394531 10 -28.375 C 10 -27.351562 9.550781 -26.519531 8.65625 -25.875 C 7.757812 -25.238281 6.5625 -24.921875 5.0625 -24.921875 C 3.5625 -24.921875 2.351562 -25.238281 1.4375 -25.875 C 0.53125 -26.519531 0.078125 -27.351562 0.078125 -28.375 Z M 0.609375 0 C 1.703125 -2.28125 2.484375 -4.675781 2.953125 -7.1875 C 3.421875 -9.707031 3.488281 -12.273438 3.15625 -14.890625 C 2.820312 -17.503906 1.972656 -20.082031 0.609375 -22.625 L 9.4375 -22.625 C 8.375 -20.34375 7.609375 -17.941406 7.140625 -15.421875 C 6.671875 -12.910156 6.601562 -10.347656 6.9375 -7.734375 C 7.269531 -5.117188 8.101562 -2.539062 9.4375 0 Z M 0.609375 0 "/></g></g></g><g fill="#f18715" fill-opacity="1"><g transform="translate(68.197019, 46.984108)"><g><path d="M 12.53125 -22.625 C 13.207031 -21.34375 13.535156 -20.128906 13.515625 -18.984375 C 13.503906 -17.847656 13.257812 -16.785156 12.78125 -15.796875 C 12.300781 -14.804688 11.691406 -13.890625 10.953125 -13.046875 C 10.210938 -12.203125 9.441406 -11.414062 8.640625 -10.6875 C 7.835938 -9.96875 7.097656 -9.316406 6.421875 -8.734375 C 5.753906 -8.160156 5.253906 -7.640625 4.921875 -7.171875 C 4.585938 -6.703125 4.523438 -6.28125 4.734375 -5.90625 C 4.867188 -5.695312 5.234375 -5.59375 5.828125 -5.59375 C 6.472656 -5.59375 7.273438 -5.734375 8.234375 -6.015625 C 9.203125 -6.296875 10.210938 -6.726562 11.265625 -7.3125 C 12.328125 -7.90625 13.304688 -8.660156 14.203125 -9.578125 C 15.097656 -10.503906 15.796875 -11.597656 16.296875 -12.859375 C 16.796875 -14.117188 16.984375 -15.554688 16.859375 -17.171875 C 16.734375 -18.796875 16.164062 -20.613281 15.15625 -22.625 L 20.8125 -22.625 C 20.007812 -20.457031 19.320312 -18.46875 18.75 -16.65625 C 18.175781 -14.84375 17.6875 -13.078125 17.28125 -11.359375 C 16.875 -9.648438 16.5625 -7.882812 16.34375 -6.0625 C 16.132812 -4.238281 16.003906 -2.21875 15.953125 0 L 4.265625 0 C 4.203125 -2.21875 4.0625 -4.238281 3.84375 -6.0625 C 3.632812 -7.882812 3.328125 -9.648438 2.921875 -11.359375 C 2.523438 -13.078125 2.039062 -14.84375 1.46875 -16.65625 C 0.894531 -18.46875 0.203125 -20.457031 -0.609375 -22.625 Z M 12.53125 -22.625 "/></g></g></g><g fill="#f18715" fill-opacity="1"><g transform="translate(88.408612, 46.984108)"><g><path d="M 0.6875 0 C 1.488281 -2.21875 2.085938 -4.234375 2.484375 -6.046875 C 2.890625 -7.859375 3.09375 -9.613281 3.09375 -11.3125 C 3.09375 -13.007812 2.890625 -14.769531 2.484375 -16.59375 C 2.085938 -18.414062 1.488281 -20.425781 0.6875 -22.625 L 8.59375 -22.625 L 6.90625 -12.625 L 7.5625 -12.53125 C 7.6875 -13.175781 7.816406 -13.953125 7.953125 -14.859375 C 8.085938 -15.773438 8.257812 -16.707031 8.46875 -17.65625 C 8.6875 -18.613281 9.003906 -19.503906 9.421875 -20.328125 C 9.835938 -21.160156 10.394531 -21.832031 11.09375 -22.34375 C 11.789062 -22.851562 12.675781 -23.109375 13.75 -23.109375 C 14.550781 -23.109375 15.445312 -22.945312 16.4375 -22.625 L 16.4375 -15.640625 C 15.90625 -15.765625 15.410156 -15.828125 14.953125 -15.828125 C 13.796875 -15.828125 12.695312 -15.523438 11.65625 -14.921875 C 10.613281 -14.328125 9.703125 -13.503906 8.921875 -12.453125 C 8.140625 -11.410156 7.566406 -10.210938 7.203125 -8.859375 C 6.847656 -7.503906 6.769531 -6.070312 6.96875 -4.5625 C 7.175781 -3.050781 7.734375 -1.53125 8.640625 0 Z M 0.6875 0 "/></g></g></g><g fill="#f18715" fill-opacity="1"><g transform="translate(105.044001, 46.984108)"><g><path d="M 2.6875 -7.109375 C 2.6875 -6.359375 3.054688 -5.835938 3.796875 -5.546875 C 4.535156 -5.253906 5.476562 -5.109375 6.625 -5.109375 C 7.75 -5.109375 8.960938 -5.210938 10.265625 -5.421875 C 11.566406 -5.640625 12.828125 -5.910156 14.046875 -6.234375 C 15.265625 -6.554688 16.316406 -6.875 17.203125 -7.1875 C 18.085938 -7.507812 18.648438 -7.765625 18.890625 -7.953125 L 18.890625 -0.125 C 17.972656 0.0625 17.046875 0.207031 16.109375 0.3125 C 15.171875 0.425781 14.234375 0.484375 13.296875 0.484375 C 11.929688 0.484375 10.507812 0.289062 9.03125 -0.09375 C 7.5625 -0.488281 6.179688 -1.132812 4.890625 -2.03125 C 3.609375 -2.925781 2.570312 -4.117188 1.78125 -5.609375 C 1 -7.097656 0.609375 -8.9375 0.609375 -11.125 C 0.609375 -12.625 0.84375 -14.082031 1.3125 -15.5 C 1.78125 -16.925781 2.484375 -18.207031 3.421875 -19.34375 C 4.359375 -20.488281 5.535156 -21.398438 6.953125 -22.078125 C 8.367188 -22.765625 10.039062 -23.109375 11.96875 -23.109375 C 12.644531 -23.109375 13.40625 -23.066406 14.25 -22.984375 C 15.09375 -22.898438 15.929688 -22.78125 16.765625 -22.625 C 17.210938 -21.925781 17.582031 -20.945312 17.875 -19.6875 C 18.175781 -18.425781 18.328125 -17.085938 18.328125 -15.671875 C 17.972656 -14.867188 17.398438 -14.066406 16.609375 -13.265625 C 15.828125 -12.460938 14.828125 -11.796875 13.609375 -11.265625 C 12.390625 -10.742188 10.960938 -10.484375 9.328125 -10.484375 L 9.328125 -11.6875 C 10.523438 -11.6875 11.632812 -11.859375 12.65625 -12.203125 C 13.675781 -12.554688 14.546875 -12.976562 15.265625 -13.46875 C 15.992188 -13.96875 16.519531 -14.46875 16.84375 -14.96875 C 17.164062 -15.46875 17.234375 -15.863281 17.046875 -16.15625 C 16.929688 -16.375 16.539062 -16.484375 15.875 -16.484375 C 15.125 -16.484375 14.144531 -16.320312 12.9375 -16 C 11.726562 -15.675781 10.601562 -15.207031 9.5625 -14.59375 C 7.226562 -13.195312 5.5 -11.816406 4.375 -10.453125 C 3.25 -9.085938 2.6875 -7.972656 2.6875 -7.109375 Z M 2.6875 -7.109375 "/></g></g></g><g fill="#f18715" fill-opacity="1"><g transform="translate(124.532313, 46.984108)"><g><path d="M 0.078125 -28.375 C 0.078125 -29.394531 0.53125 -30.210938 1.4375 -30.828125 C 2.351562 -31.441406 3.5625 -31.75 5.0625 -31.75 C 6.5625 -31.75 7.757812 -31.441406 8.65625 -30.828125 C 9.550781 -30.210938 10 -29.394531 10 -28.375 C 10 -27.351562 9.550781 -26.519531 8.65625 -25.875 C 7.757812 -25.238281 6.5625 -24.921875 5.0625 -24.921875 C 3.5625 -24.921875 2.351562 -25.238281 1.4375 -25.875 C 0.53125 -26.519531 0.078125 -27.351562 0.078125 -28.375 Z M 0.609375 0 C 1.703125 -2.28125 2.484375 -4.675781 2.953125 -7.1875 C 3.421875 -9.707031 3.488281 -12.273438 3.15625 -14.890625 C 2.820312 -17.503906 1.972656 -20.082031 0.609375 -22.625 L 9.4375 -22.625 C 8.375 -20.34375 7.609375 -17.941406 7.140625 -15.421875 C 6.671875 -12.910156 6.601562 -10.347656 6.9375 -7.734375 C 7.269531 -5.117188 8.101562 -2.539062 9.4375 0 Z M 0.609375 0 "/></g></g></g><g fill="#f18715" fill-opacity="1"><g transform="translate(134.618022, 46.984108)"><g><path d="M 0.6875 0 C 1.488281 -2.21875 2.085938 -4.234375 2.484375 -6.046875 C 2.890625 -7.859375 3.09375 -9.613281 3.09375 -11.3125 C 3.09375 -13.007812 2.890625 -14.769531 2.484375 -16.59375 C 2.085938 -18.414062 1.488281 -20.425781 0.6875 -22.625 L 8.59375 -22.625 L 6.90625 -12.625 L 7.5625 -12.53125 C 7.6875 -13.175781 7.816406 -13.953125 7.953125 -14.859375 C 8.085938 -15.773438 8.257812 -16.707031 8.46875 -17.65625 C 8.6875 -18.613281 9.003906 -19.503906 9.421875 -20.328125 C 9.835938 -21.160156 10.394531 -21.832031 11.09375 -22.34375 C 11.789062 -22.851562 12.675781 -23.109375 13.75 -23.109375 C 14.550781 -23.109375 15.445312 -22.945312 16.4375 -22.625 L 16.4375 -15.640625 C 15.90625 -15.765625 15.410156 -15.828125 14.953125 -15.828125 C 13.796875 -15.828125 12.695312 -15.523438 11.65625 -14.921875 C 10.613281 -14.328125 9.703125 -13.503906 8.921875 -12.453125 C 8.140625 -11.410156 7.566406 -10.210938 7.203125 -8.859375 C 6.847656 -7.503906 6.769531 -6.070312 6.96875 -4.5625 C 7.175781 -3.050781 7.734375 -1.53125 8.640625 0 Z M 0.6875 0 "/></g></g></g><g fill="#f18715" fill-opacity="1"><g transform="translate(151.253405, 46.984108)"><g><path d="M 10.65625 0.484375 C 8.90625 0.484375 7.398438 0.148438 6.140625 -0.515625 C 4.890625 -1.191406 3.851562 -2.09375 3.03125 -3.21875 C 2.21875 -4.34375 1.609375 -5.597656 1.203125 -6.984375 C 0.804688 -8.378906 0.609375 -9.816406 0.609375 -11.296875 C 0.609375 -12.765625 0.800781 -14.203125 1.1875 -15.609375 C 1.570312 -17.015625 2.171875 -18.28125 2.984375 -19.40625 C 3.804688 -20.53125 4.851562 -21.425781 6.125 -22.09375 C 7.394531 -22.769531 8.90625 -23.109375 10.65625 -23.109375 C 12.394531 -23.109375 13.894531 -22.769531 15.15625 -22.09375 C 16.414062 -21.425781 17.453125 -20.53125 18.265625 -19.40625 C 19.078125 -18.28125 19.675781 -17.015625 20.0625 -15.609375 C 20.457031 -14.203125 20.65625 -12.765625 20.65625 -11.296875 C 20.65625 -9.816406 20.457031 -8.378906 20.0625 -6.984375 C 19.675781 -5.597656 19.078125 -4.34375 18.265625 -3.21875 C 17.453125 -2.09375 16.414062 -1.191406 15.15625 -0.515625 C 13.894531 0.148438 12.394531 0.484375 10.65625 0.484375 Z M 8.234375 -13.703125 C 5.878906 -12.097656 4.300781 -10.640625 3.5 -9.328125 C 2.695312 -8.015625 2.507812 -7.019531 2.9375 -6.34375 C 3.257812 -5.8125 3.925781 -5.546875 4.9375 -5.546875 C 5.851562 -5.546875 7 -5.804688 8.375 -6.328125 C 9.757812 -6.847656 11.304688 -7.695312 13.015625 -8.875 C 15.378906 -10.507812 16.960938 -11.976562 17.765625 -13.28125 C 18.566406 -14.582031 18.753906 -15.566406 18.328125 -16.234375 C 18.003906 -16.773438 17.332031 -17.046875 16.3125 -17.046875 C 15.40625 -17.046875 14.265625 -16.78125 12.890625 -16.25 C 11.523438 -15.726562 9.972656 -14.878906 8.234375 -13.703125 Z M 8.234375 -13.703125 "/></g></g></g></svg>